<svg width="85" height="40" viewBox="0 0 85 40" fill="none" xmlns="http://www.w3.org/2000/svg">
<rect x="4.29993" y="17.5" width="17" height="11" rx="1.5" fill="#7000FF"/>
<rect x="4.29993" y="17.5" width="17" height="11" rx="1.5" stroke="#7000FF"/>
<rect x="5.3999" y="18.6001" width="14.8" height="8.8" rx="1" fill="#F0F0FF"/>
<mask id="path-3-inside-1_2_375" fill="white">
<path d="M5.80994 12.6C5.80994 11.7163 6.52628 11 7.40994 11H18.1999C19.0836 11 19.7999 11.7163 19.7999 12.6H5.80994Z"/>
</mask>
<path d="M5.80994 12.6C5.80994 10.8327 7.24263 9.4 9.00994 9.4H16.5999C18.3672 9.4 19.7999 10.8327 19.7999 12.6C19.7999 12.6 19.0836 12.6 18.1999 12.6H7.40994C6.52628 12.6 5.80994 12.6 5.80994 12.6ZM19.7999 12.6H5.80994H19.7999ZM5.80994 12.6V11V12.6ZM19.7999 11V12.6V11Z" fill="#7000FF" mask="url(#path-3-inside-1_2_375)"/>
<mask id="path-5-inside-2_2_375" fill="white">
<path d="M4.80994 15.6C4.80994 14.7163 5.52628 14 6.40994 14H19.1899C20.0736 14 20.7899 14.7163 20.7899 15.6H4.80994Z"/>
</mask>
<path d="M4.80994 15.6C4.80994 14.7163 5.52628 14 6.40994 14H19.1899C20.0736 14 20.7899 14.7163 20.7899 15.6H4.80994Z" fill="#7000FF"/>
<path d="M4.80994 15.6C4.80994 13.8327 6.24263 12.4 8.00994 12.4H17.5899C19.3572 12.4 20.7899 13.8327 20.7899 15.6C20.7899 15.6 20.0736 15.6 19.1899 15.6H6.40994C5.52628 15.6 4.80994 15.6 4.80994 15.6ZM20.7899 15.6H4.80994H20.7899ZM4.80994 15.6V14V15.6ZM20.7899 14V15.6V14Z" fill="#7000FF" mask="url(#path-5-inside-2_2_375)"/>
<path d="M34.1407 24V13.8182H35.6769V18.6804H35.8012L40.0718 13.8182H42.0057L37.8992 18.402L42.0206 24H40.1712L36.88 19.451L35.6769 20.8331V24H34.1407ZM45.6245 24.169C45.1406 24.169 44.7031 24.0795 44.312 23.9006C43.9209 23.7183 43.611 23.4548 43.3823 23.1101C43.1569 22.7654 43.0443 22.3428 43.0443 21.8423C43.0443 21.4115 43.1271 21.0568 43.2928 20.7784C43.4586 20.5 43.6823 20.2796 43.964 20.1172C44.2457 19.9548 44.5606 19.8321 44.9086 19.7493C45.2566 19.6664 45.6113 19.6035 45.9725 19.5604C46.4299 19.5073 46.8011 19.4643 47.0862 19.4311C47.3712 19.3946 47.5783 19.3366 47.7076 19.2571C47.8369 19.1776 47.9015 19.0483 47.9015 18.8693V18.8345C47.9015 18.4003 47.7789 18.0639 47.5336 17.8253C47.2917 17.5866 46.9304 17.4673 46.4498 17.4673C45.9493 17.4673 45.5549 17.5784 45.2666 17.8004C44.9815 18.0192 44.7843 18.2628 44.6749 18.5312L43.2779 18.2131C43.4436 17.7491 43.6856 17.3745 44.0038 17.0895C44.3253 16.8011 44.6948 16.5923 45.1124 16.4631C45.5301 16.3305 45.9692 16.2642 46.4299 16.2642C46.7348 16.2642 47.058 16.3007 47.3994 16.3736C47.7441 16.4432 48.0656 16.5724 48.3639 16.7614C48.6655 16.9503 48.9124 17.2204 49.1046 17.5717C49.2969 17.9197 49.393 18.3722 49.393 18.929V24H47.9413V22.956H47.8816C47.7855 23.1482 47.6413 23.3371 47.4491 23.5227C47.2569 23.7083 47.0099 23.8625 46.7083 23.9851C46.4067 24.1077 46.0454 24.169 45.6245 24.169ZM45.9477 22.9759C46.3587 22.9759 46.71 22.8946 47.0016 22.7322C47.2966 22.5698 47.5203 22.3577 47.6728 22.0959C47.8286 21.8307 47.9065 21.5473 47.9065 21.2457V20.2614C47.8534 20.3144 47.7507 20.3641 47.5982 20.4105C47.4491 20.4536 47.2784 20.4917 47.0862 20.5249C46.8939 20.5547 46.7067 20.5829 46.5244 20.6094C46.3421 20.6326 46.1896 20.6525 46.067 20.669C45.7786 20.7055 45.5151 20.7668 45.2765 20.853C45.0412 20.9392 44.8523 21.0634 44.7097 21.2259C44.5705 21.3849 44.5009 21.5971 44.5009 21.8622C44.5009 22.2301 44.6368 22.5085 44.9086 22.6974C45.1804 22.883 45.5267 22.9759 45.9477 22.9759ZM55.0215 16.3636V17.5568H50.8504V16.3636H55.0215ZM51.969 14.5341H53.4555V21.7578C53.4555 22.0462 53.4986 22.2633 53.5848 22.4091C53.6709 22.5516 53.782 22.6494 53.9179 22.7024C54.0571 22.7521 54.2079 22.777 54.3703 22.777C54.4896 22.777 54.594 22.7687 54.6835 22.7521C54.773 22.7356 54.8426 22.7223 54.8923 22.7124L55.1607 23.9403C55.0746 23.9735 54.9519 24.0066 54.7929 24.0398C54.6338 24.0762 54.4349 24.0961 54.1963 24.0994C53.8052 24.1061 53.4406 24.0365 53.1025 23.8906C52.7644 23.7448 52.491 23.5194 52.2822 23.2145C52.0734 22.9096 51.969 22.5268 51.969 22.0661V14.5341ZM58.9722 24.169C58.4883 24.169 58.0508 24.0795 57.6597 23.9006C57.2686 23.7183 56.9587 23.4548 56.73 23.1101C56.5046 22.7654 56.3919 22.3428 56.3919 21.8423C56.3919 21.4115 56.4748 21.0568 56.6405 20.7784C56.8062 20.5 57.03 20.2796 57.3117 20.1172C57.5934 19.9548 57.9083 19.8321 58.2563 19.7493C58.6043 19.6664 58.9589 19.6035 59.3202 19.5604C59.7776 19.5073 60.1488 19.4643 60.4338 19.4311C60.7189 19.3946 60.926 19.3366 61.0553 19.2571C61.1846 19.1776 61.2492 19.0483 61.2492 18.8693V18.8345C61.2492 18.4003 61.1266 18.0639 60.8813 17.8253C60.6393 17.5866 60.2781 17.4673 59.7975 17.4673C59.297 17.4673 58.9026 17.5784 58.6142 17.8004C58.3292 18.0192 58.132 18.2628 58.0226 18.5312L56.6256 18.2131C56.7913 17.7491 57.0333 17.3745 57.3515 17.0895C57.673 16.8011 58.0425 16.5923 58.4601 16.4631C58.8777 16.3305 59.3169 16.2642 59.7776 16.2642C60.0825 16.2642 60.4057 16.3007 60.7471 16.3736C61.0918 16.4432 61.4133 16.5724 61.7115 16.7614C62.0132 16.9503 62.2601 17.2204 62.4523 17.5717C62.6445 17.9197 62.7407 18.3722 62.7407 18.929V24H61.289V22.956H61.2293C61.1332 23.1482 60.989 23.3371 60.7968 23.5227C60.6045 23.7083 60.3576 23.8625 60.056 23.9851C59.7544 24.1077 59.3931 24.169 58.9722 24.169ZM59.2954 22.9759C59.7063 22.9759 60.0577 22.8946 60.3493 22.7322C60.6443 22.5698 60.868 22.3577 61.0205 22.0959C61.1763 21.8307 61.2542 21.5473 61.2542 21.2457V20.2614C61.2011 20.3144 61.0984 20.3641 60.9459 20.4105C60.7968 20.4536 60.6261 20.4917 60.4338 20.5249C60.2416 20.5547 60.0544 20.5829 59.8721 20.6094C59.6898 20.6326 59.5373 20.6525 59.4147 20.669C59.1263 20.7055 58.8628 20.7668 58.6242 20.853C58.3889 20.9392 58.1999 21.0634 58.0574 21.2259C57.9182 21.3849 57.8486 21.5971 57.8486 21.8622C57.8486 22.2301 57.9845 22.5085 58.2563 22.6974C58.5281 22.883 58.8744 22.9759 59.2954 22.9759ZM66.2911 13.8182V24H64.8046V13.8182H66.2911ZM71.5916 24.1541C70.8756 24.1541 70.2509 23.9901 69.7173 23.6619C69.1836 23.3338 68.7693 22.8748 68.4744 22.2848C68.1794 21.6948 68.0319 21.0054 68.0319 20.2166C68.0319 19.4245 68.1794 18.7318 68.4744 18.1385C68.7693 17.5452 69.1836 17.0845 69.7173 16.7564C70.2509 16.4283 70.8756 16.2642 71.5916 16.2642C72.3075 16.2642 72.9322 16.4283 73.4658 16.7564C73.9995 17.0845 74.4138 17.5452 74.7087 18.1385C75.0037 18.7318 75.1512 19.4245 75.1512 20.2166C75.1512 21.0054 75.0037 21.6948 74.7087 22.2848C74.4138 22.8748 73.9995 23.3338 73.4658 23.6619C72.9322 23.9901 72.3075 24.1541 71.5916 24.1541ZM71.5965 22.9062C72.0605 22.9062 72.445 22.7836 72.7499 22.5384C73.0549 22.2931 73.2802 21.9666 73.4261 21.5589C73.5752 21.1513 73.6498 20.7022 73.6498 20.2116C73.6498 19.7244 73.5752 19.277 73.4261 18.8693C73.2802 18.4583 73.0549 18.1286 72.7499 17.88C72.445 17.6314 72.0605 17.5071 71.5965 17.5071C71.1292 17.5071 70.7414 17.6314 70.4332 17.88C70.1282 18.1286 69.9012 18.4583 69.7521 18.8693C69.6062 19.277 69.5333 19.7244 69.5333 20.2116C69.5333 20.7022 69.6062 21.1513 69.7521 21.5589C69.9012 21.9666 70.1282 22.2931 70.4332 22.5384C70.7414 22.7836 71.1292 22.9062 71.5965 22.9062ZM80.0962 27.0227C79.4896 27.0227 78.9676 26.9432 78.5301 26.7841C78.0959 26.625 77.7413 26.4145 77.4662 26.1527C77.1911 25.8909 76.9856 25.6042 76.8497 25.2926L78.1274 24.7656C78.2169 24.9115 78.3362 25.0656 78.4854 25.228C78.6378 25.3937 78.8433 25.5346 79.1019 25.6506C79.3637 25.7666 79.7001 25.8246 80.1111 25.8246C80.6745 25.8246 81.1402 25.687 81.5081 25.4119C81.876 25.1402 82.06 24.706 82.06 24.1094V22.608H81.9655C81.876 22.7704 81.7468 22.951 81.5777 23.1499C81.412 23.3487 81.1833 23.5211 80.8916 23.6669C80.6 23.8127 80.2205 23.8857 79.7531 23.8857C79.1499 23.8857 78.6064 23.7448 78.1225 23.4631C77.6419 23.178 77.2607 22.7588 76.979 22.2053C76.7006 21.6484 76.5614 20.964 76.5614 20.152C76.5614 19.34 76.6989 18.6439 76.974 18.0639C77.2524 17.4839 77.6336 17.0398 78.1175 16.7315C78.6014 16.42 79.1499 16.2642 79.7631 16.2642C80.237 16.2642 80.6199 16.3438 80.9115 16.5028C81.2032 16.6586 81.4302 16.8409 81.5926 17.0497C81.7584 17.2585 81.886 17.4425 81.9754 17.6016H82.0848V16.3636H83.5415V24.169C83.5415 24.8253 83.389 25.3639 83.0841 25.7848C82.7792 26.2057 82.3665 26.5173 81.8462 26.7195C81.3291 26.9216 80.7458 27.0227 80.0962 27.0227ZM80.0813 22.6527C80.5088 22.6527 80.8701 22.5533 81.1651 22.3544C81.4634 22.1522 81.6887 21.8639 81.8412 21.4893C81.997 21.1115 82.0749 20.6591 82.0749 20.1321C82.0749 19.6184 81.9986 19.166 81.8462 18.7749C81.6937 18.3838 81.47 18.0788 81.175 17.8601C80.88 17.638 80.5155 17.527 80.0813 17.527C79.6338 17.527 79.261 17.643 78.9627 17.875C78.6644 18.1037 78.439 18.4152 78.2865 18.8097C78.1374 19.2041 78.0628 19.6449 78.0628 20.1321C78.0628 20.6326 78.139 21.0717 78.2915 21.4496C78.444 21.8274 78.6693 22.1224 78.9676 22.3345C79.2692 22.5466 79.6405 22.6527 80.0813 22.6527Z" fill="#7000FF"/>
</svg>
