<svg width="17" height="17" viewBox="0 0 17 17" fill="none" xmlns="http://www.w3.org/2000/svg">
<path fill-rule="evenodd" clip-rule="evenodd" d="M12.0726 7.21985C12.0726 9.98125 9.83403 12.2198 7.07263 12.2198C4.31121 12.2198 2.07263 9.98125 2.07263 7.21985C2.07263 4.45843 4.31121 2.21985 7.07263 2.21985C9.83403 2.21985 12.0726 4.45843 12.0726 7.21985ZM10.9124 12.4649C9.83663 13.2539 8.50903 13.7198 7.07263 13.7198C3.48278 13.7198 0.572632 10.8097 0.572632 7.21985C0.572632 3.63 3.48278 0.719849 7.07263 0.719849C10.6625 0.719849 13.5726 3.63 13.5726 7.21985C13.5726 8.65625 13.1067 9.98385 12.3177 11.0596L16.2816 15.0234C16.6696 15.4115 16.6696 16.0407 16.2816 16.4288C15.8935 16.8168 15.2643 16.8168 14.8762 16.4288L10.9124 12.4649Z" fill="#595B66"/>
</svg>
